{
  "accessors": [
    {
      "bufferView": 3,
      "componentType": 5126,
      "count": 376,
      "max": [
        1.920332670211792,
        1.620749831199646,
        1.0885783433914185
      ],
      "min": [
        -1.920332670211792,
        -2.1497244834899902,
        -0.8391002416610718
      ],
      "type": "VEC3"
    },
    {
      "bufferView": 3,
      "byteOffset": 4512,
      "componentType": 5126,
      "count": 376,
      "max": [
        0.9897338151931763,
        0.997604250907898,
        0.9662134051322937
      ],
      "min": [
        -0.8728659152984619,
        -0.997604250907898,
        -0.9662134051322937
      ],
      "type": "VEC3"
    },
    {
      "bufferView": 2,
      "componentType": 5126,
      "count": 376,
      "max": [
        0.8729756474494934,
        1.0
      ],
      "min": [
        0.0,
        0.0
      ],
      "type": "VEC2"
    },
    {
      "bufferView": 1,
      "componentType": 5125,
      "count": 1128,
      "type": "SCALAR"
    },
    {
      "bufferView": 3,
      "byteOffset": 9024,
      "componentType": 5126,
      "count": 106,
      "max": [
        1.1473431587219238,
        1.6544520854949951,
        1.3813591003417969
      ],
      "min": [
        -1.1473431587219238,
        -0.502407431602478,
        -1.2542394399642944
      ],
      "type": "VEC3"
    },
    {
      "bufferView": 3,
      "byteOffset": 10296,
      "componentType": 5126,
      "count": 106,
      "max": [
        0.7765340805053711,
        0.9379972219467163,
        0.9807285666465759
      ],
      "min": [
        -0.7765340805053711,
        -0.9261882901191711,
        -0.9990789890289307
      ],
      "type": "VEC3"
    },
    {
      "bufferView": 2,
      "byteOffset": 3008,
      "componentType": 5126,
      "count": 106,
      "max": [
        0.7988983988761902,
        0.7612054347991943
      ],
      "min": [
        0.0,
        0.0
      ],
      "type": "VEC2"
    },
    {
      "bufferView": 1,
      "byteOffset": 4512,
      "componentType": 5125,
      "count": 294,
      "type": "SCALAR"
    },
    {
      "bufferView": 3,
      "byteOffset": 11568,
      "componentType": 5126,
      "count": 326,
      "max": [
        1.038379192352295,
        -0.246591255068779,
        0.9999997615814209
      ],
      "min": [
        -1.038379192352295,
        -4.397272109985352,
        -1.363199234008789
      ],
      "type": "VEC3"
    },
    {
      "bufferView": 3,
      "byteOffset": 15480,
      "componentType": 5126,
      "count": 326,
      "max": [
        0.9904302954673767,
        0.98736971616745,
        0.9993796348571777
      ],
      "min": [
        -0.972274899482727,
        -0.98736971616745,
        -0.975082516670227
      ],
      "type": "VEC3"
    },
    {
      "bufferView": 2,
      "byteOffset": 3856,
      "componentType": 5126,
      "count": 326,
      "max": [
        1.0,
        1.0
      ],
      "min": [
        0.0,
        0.0
      ],
      "type": "VEC2"
    },
    {
      "bufferView": 1,
      "byteOffset": 5688,
      "componentType": 5125,
      "count": 900,
      "type": "SCALAR"
    },
    {
      "bufferView": 3,
      "byteOffset": 19392,
      "componentType": 5126,
      "count": 131,
      "max": [
        0.8938606977462769,
        -4.351806640625,
        2.1059906482696533
      ],
      "min": [
        -0.8938606977462769,
        -4.8243608474731445,
        -0.9906004071235657
      ],
      "type": "VEC3"
    },
    {
      "bufferView": 3,
      "byteOffset": 20964,
      "componentType": 5126,
      "count": 131,
      "max": [
        0.9921826720237732,
        0.9543973803520203,
        0.9831821322441101
      ],
      "min": [
        -0.9921826720237732,
        -0.9543973803520203,
        -0.9831821322441101
      ],
      "type": "VEC3"
    },
    {
      "bufferView": 2,
      "byteOffset": 6464,
      "componentType": 5126,
      "count": 131,
      "max": [
        0.9950882196426392,
        0.9855749011039734
      ],
      "min": [
        0.0399303063750267,
        0.0
      ],
      "type": "VEC2"
    },
    {
      "bufferView": 1,
      "byteOffset": 9288,
      "componentType": 5125,
      "count": 288,
      "type": "SCALAR"
    },
    {
      "bufferView": 5,
      "componentType": 5126,
      "count": 19,
      "max": [
        100.00001525878906,
        0.0919167548418045,
        0.01981748640537262,
        0.0,
        0.04691513255238533,
        51.03985595703125,
        0.09007157385349274,
        0.0,
        0.010625609196722507,
        1.2161983251571655,
        132.91427612304688,
        0.0,
        1.6060681343078613,
        1.7360647916793823,
        0.2513546943664551,
        1.0
      ],
      "min": [
        -0.999941349029541,
        -0.09191670268774033,
        -0.01981748640537262,
        0.0,
        -0.04691518470644951,
        -0.5103760957717896,
        -0.4669354557991028,
        0.0,
        -0.010625609196722507,
        -0.23455782234668732,
        -1.3291428089141846,
        0.0,
        -1.606067180633545,
        -3.5739729404449463,
        -5.4297614097595215,
        1.0
      ],
      "type": "MAT4"
    },
    {
      "bufferView": 0,
      "componentType": 5123,
      "count": 376,
      "type": "VEC4"
    },
    {
      "bufferView": 4,
      "componentType": 5126,
      "count": 376,
      "max": [
        1.0,
        0.0,
        0.0,
        0.0
      ],
      "min": [
        1.0,
        0.0,
        0.0,
        0.0
      ],
      "type": "VEC4"
    },
    {
      "bufferView": 0,
      "byteOffset": 3008,
      "componentType": 5123,
      "count": 106,
      "type": "VEC4"
    },
    {
      "bufferView": 4,
      "byteOffset": 6016,
      "componentType": 5126,
      "count": 106,
      "max": [
        1.0,
        0.0,
        0.0,
        0.0
      ],
      "min": [
        1.0,
        0.0,
        0.0,
        0.0
      ],
      "type": "VEC4"
    },
    {
      "bufferView": 0,
      "byteOffset": 3856,
      "componentType": 5123,
      "count": 326,
      "type": "VEC4"
    },
    {
      "bufferView": 4,
      "byteOffset": 7712,
      "componentType": 5126,
      "count": 326,
      "max": [
        1.0,
        0.0,
        0.0,
        0.0
      ],
      "min": [
        1.0,
        0.0,
        0.0,
        0.0
      ],
      "type": "VEC4"
    },
    {
      "bufferView": 0,
      "byteOffset": 6464,
      "componentType": 5123,
      "count": 131,
      "type": "VEC4"
    },
    {
      "bufferView": 4,
      "byteOffset": 12928,
      "componentType": 5126,
      "count": 131,
      "max": [
        1.0,
        0.0,
        0.0,
        0.0
      ],
      "min": [
        1.0,
        0.0,
        0.0,
        0.0
      ],
      "type": "VEC4"
    }
  ],
  "asset": {
    "extras": {
      "author": "mirkuwu (https://sketchfab.com/mirkobuitre317)",
      "license": "CC-BY-4.0 (http://creativecommons.org/licenses/by/4.0/)",
      "source": "https://sketchfab.com/3d-models/ps1-character-rigged-94b654daddfb44d080044d6916d1284e",
      "title": "PS1_character (rigged)."
    },
    "generator": "Sketchfab-12.65.0",
    "version": "2.0"
  },
  "bufferViews": [
    {
      "buffer": 0,
      "byteLength": 7512,
      "byteStride": 8,
      "name": "shortBufferViews",
      "target": 34962
    },
    {
      "buffer": 0,
      "byteLength": 10440,
      "byteOffset": 7512,
      "name": "floatBufferViews",
      "target": 34963
    },
    {
      "buffer": 0,
      "byteLength": 7512,
      "byteOffset": 17952,
      "byteStride": 8,
      "name": "floatBufferViews",
      "target": 34962
    },
    {
      "buffer": 0,
      "byteLength": 22536,
      "byteOffset": 25464,
      "byteStride": 12,
      "name": "floatBufferViews",
      "target": 34962
    },
    {
      "buffer": 0,
      "byteLength": 15024,
      "byteOffset": 48000,
      "byteStride": 16,
      "name": "floatBufferViews",
      "target": 34962
    },
    {
      "buffer": 0,
      "byteLength": 1216,
      "byteOffset": 63024,
      "name": "floatBufferViews"
    }
  ],
  "buffers": [
    {
      "byteLength": 64240,
      "uri": "scene.bin"
    }
  ],
  "extensionsRequired": [
    "KHR_materials_pbrSpecularGlossiness"
  ],
  "extensionsUsed": [
    "KHR_materials_pbrSpecularGlossiness"
  ],
  "materials": [
    {
      "doubleSided": true,
      "extensions": {
        "KHR_materials_pbrSpecularGlossiness": {
          "diffuseFactor": [
            0.8,
            0.8,
            0.8,
            1.0
          ],
          "glossinessFactor": 0.1788854381999832,
          "specularFactor": [
            0.0,
            0.0,
            0.0
          ]
        }
      },
      "name": "character_arms"
    },
    {
      "doubleSided": true,
      "extensions": {
        "KHR_materials_pbrSpecularGlossiness": {
          "diffuseFactor": [
            0.8,
            0.8,
            0.8,
            1.0
          ],
          "glossinessFactor": 0.1788854381999832,
          "specularFactor": [
            0.0,
            0.0,
            0.0
          ]
        }
      },
      "name": "character_torso"
    },
    {
      "doubleSided": true,
      "extensions": {
        "KHR_materials_pbrSpecularGlossiness": {
          "diffuseFactor": [
            0.8,
            0.8,
            0.8,
            1.0
          ],
          "glossinessFactor": 0.8529006128047383,
          "specularFactor": [
            0.0,
            0.0,
            0.0
          ]
        }
      },
      "name": "trousers_Texture"
    },
    {
      "doubleSided": true,
      "extensions": {
        "KHR_materials_pbrSpecularGlossiness": {
          "diffuseFactor": [
            0.8,
            0.8,
            0.8,
            1.0
          ],
          "glossinessFactor": 0.1788854381999832,
          "specularFactor": [
            0.0,
            0.0,
            0.0
          ]
        }
      },
      "name": "foots"
    }
  ],
  "meshes": [
    {
      "name": "Character_character_arms_0",
      "primitives": [
        {
          "attributes": {
            "JOINTS_0": 17,
            "NORMAL": 1,
            "POSITION": 0,
            "TEXCOORD_0": 2,
            "WEIGHTS_0": 18
          },
          "indices": 3,
          "material": 0,
          "mode": 4
        }
      ]
    },
    {
      "name": "Character_character_torso_0",
      "primitives": [
        {
          "attributes": {
            "JOINTS_0": 19,
            "NORMAL": 5,
            "POSITION": 4,
            "TEXCOORD_0": 6,
            "WEIGHTS_0": 20
          },
          "indices": 7,
          "material": 1,
          "mode": 4
        }
      ]
    },
    {
      "name": "Character_trousers_Texture_0",
      "primitives": [
        {
          "attributes": {
            "JOINTS_0": 21,
            "NORMAL": 9,
            "POSITION": 8,
            "TEXCOORD_0": 10,
            "WEIGHTS_0": 22
          },
          "indices": 11,
          "material": 2,
          "mode": 4
        }
      ]
    },
    {
      "name": "Character_foots_0",
      "primitives": [
        {
          "attributes": {
            "JOINTS_0": 23,
            "NORMAL": 13,
            "POSITION": 12,
            "TEXCOORD_0": 14,
            "WEIGHTS_0": 24
          },
          "indices": 15,
          "material": 3,
          "mode": 4
        }
      ]
    }
  ],
  "nodes": [
    {
      "children": [
        1
      ],
      "matrix": [
        1.0,
        1.6081226229577292e-16,
        5.356124287284811e-32,
        0.0,
        -8.006836424271825e-33,
        3.828568672208042e-16,
        -1.0,
        0.0,
        -1.6081226229577292e-16,
        1.0,
        3.828568672208042e-16,
        0.0,
        6.171572050945478e-17,
        -4.440892098500627e-16,
        3.885780586188047e-16,
        1.0
      ],
      "name": "Sketchfab_model"
    },
    {
      "children": [
        2
      ],
      "matrix": [
        0.009999999776482582,
        0.0,
        0.0,
        0.0,
        0.0,
        0.0,
        0.009999999776482582,
        0.0,
        0.0,
        -0.009999999776482582,
        0.0,
        0.0,
        0.0,
        0.0,
        0.0,
        1.0
      ],
      "name": "10fd1229c0c64100b1e74f0ea24be602.fbx"
    },
    {
      "children": [
        3
      ],
      "name": "RootNode"
    },
    {
      "children": [
        4
      ],
      "matrix": [
        100.0,
        0.0,
        0.0,
        0.0,
        0.0,
        -1.629206793918314e-05,
        -99.99999999999868,
        0.0,
        0.0,
        99.99999999999868,
        -1.629206793918314e-05,
        0.0,
        0.0,
        -128.9741973876953,
        0.0,
        1.0
      ],
      "name": "Armature"
    },
    {
      "children": [
        5,
        7,
        8,
        9,
        10,
        6
      ],
      "name": "Object_4"
    },
    {
      "children": [
        11
      ],
      "name": "_rootJoint"
    },
    {
      "matrix": [
        100.00001192092896,
        -4.223492624100107e-22,
        1.7571136396724579e-22,
        0.0,
        8.968281328453247e-23,
        -5.622784088833467e-07,
        -51.03985554801871,
        0.0,
        5.613623691782363e-22,
        132.91426870778787,
        -1.4642444169262475e-06,
        0.0,
        2.9309810126947157e-22,
        -4.652581992559135e-06,
        1.0836570254468825e-06,
        1.0
      ],
      "name": "Object_6"
    },
    {
      "mesh": 0,
      "name": "Object_7",
      "skin": 0
    },
    {
      "mesh": 1,
      "name": "Object_8",
      "skin": 0
    },
    {
      "mesh": 2,
      "name": "Object_9",
      "skin": 0
    },
    {
      "mesh": 3,
      "name": "Object_10",
      "skin": 0
    },
    {
      "children": [
        12,
        21,
        25
      ],
      "name": "Pelvis_00",
      "rotation": [
        0.6416879892349243,
        -1.3202249892034018e-24,
        -2.8383766351303735e-17,
        0.7669658064842224
      ],
      "scale": [
        1.0,
        0.9999999403953552,
        1.0
      ],
      "translation": [
        0.0,
        2.6469779601696886e-23,
        -0.1345818042755127
      ]
    },
    {
      "children": [
        13,
        17
      ],
      "name": "Torso_01",
      "rotation": [
        0.06964849680662155,
        1.1891982154565994e-07,
        8.302748710775631e-09,
        0.997571587562561
      ],
      "translation": [
        -2.0679515313825692e-24,
        0.7943954467773438,
        1.1175870895385742e-08
      ]
    },
    {
      "children": [
        14
      ],
      "name": "Upper Arm L_02",
      "rotation": [
        -0.0007408239762298763,
        -0.021917281672358513,
        0.998700737953186,
        -0.04600181058049202
      ],
      "scale": [
        0.9999955296516418,
        0.9999998807907104,
        0.9999991059303284
      ],
      "translation": [
        1.3009573221206665,
        2.498828887939453,
        0.23527272045612335
      ]
    },
    {
      "children": [
        15
      ],
      "name": "Lower Arm L_03",
      "rotation": [
        0.09083365648984909,
        -0.00045379335642792284,
        -0.0026599711272865534,
        0.9958624243736267
      ],
      "scale": [
        1.0,
        1.0000001192092896,
        0.9999998807907104
      ],
      "translation": [
        -2.6796051599831117e-08,
        1.5861917734146118,
        5.820766091346741e-10
      ]
    },
    {
      "children": [
        16
      ],
      "name": "Hand L_04",
      "rotation": [
        -0.10830622166395187,
        -0.002321626991033554,
        -0.03762653097510338,
        0.9934025406837463
      ],
      "scale": [
        1.0,
        0.9999999403953552,
        1.0000001192092896
      ],
      "translation": [
        -4.0556187741458416e-08,
        2.1036226749420166,
        1.8626450382086546e-09
      ]
    },
    {
      "name": "Hand L_end_014",
      "rotation": [
        -3.469446951953614e-18,
        -1.2705494208814505e-20,
        -1.2141158507706327e-18,
        1.0
      ],
      "translation": [
        0.0,
        0.9971342086791992,
        0.0
      ]
    },
    {
      "children": [
        18
      ],
      "name": "Upper Arm R_05",
      "rotation": [
        0.0007406888762488961,
        -0.021917294710874557,
        0.998700737953186,
        0.04600180685520172
      ],
      "scale": [
        0.9999961256980896,
        0.9999999403953552,
        0.9999992251396179
      ],
      "translation": [
        -1.3009573221206665,
        2.498828649520874,
        0.2352720946073532
      ]
    },
    {
      "children": [
        19
      ],
      "name": "Lower Arm R_06",
      "rotation": [
        0.0908336341381073,
        0.000453778455266729,
        0.0026599790435284376,
        0.9958624243736267
      ],
      "scale": [
        1.0,
        1.0000001192092896,
        0.9999999403953552
      ],
      "translation": [
        -1.9645943893920048e-07,
        1.5861918926239014,
        -1.7462298274040222e-10
      ]
    },
    {
      "children": [
        20
      ],
      "name": "Hand R_07",
      "rotation": [
        -0.10830617696046829,
        0.0023216281551867723,
        0.037626516073942184,
        0.9934026598930359
      ],
      "translation": [
        -6.26023393124342e-08,
        2.1036224365234375,
        -2.7939677238464355e-08
      ]
    },
    {
      "name": "Hand R_end_015",
      "rotation": [
        -3.469446951953614e-18,
        -3.049318610115481e-20,
        -1.0342801681567041e-18,
        1.0
      ],
      "translation": [
        -2.220446049250313e-16,
        0.9971342086791992,
        0.0
      ]
    },
    {
      "children": [
        22
      ],
      "name": "Upper Leg L_08",
      "rotation": [
        0.9960576891899109,
        0.004668202716857195,
        0.00041565613355487585,
        -0.08858384937047958
      ],
      "translation": [
        0.5858045220375061,
        0.35877177119255066,
        0.06432292610406876
      ]
    },
    {
      "children": [
        23
      ],
      "name": "Lower Leg L_09",
      "rotation": [
        0.014500097371637821,
        -0.00017774300067685544,
        0.0021049007773399353,
        0.9998926520347595
      ],
      "scale": [
        1.0,
        0.9999998807907104,
        1.0
      ],
      "translation": [
        2.048879466087783e-08,
        2.512660026550293,
        4.263256414560601e-14
      ]
    },
    {
      "children": [
        24
      ],
      "name": "Foot L_010",
      "rotation": [
        -0.5582509636878967,
        0.0070169782266020775,
        -0.0032357850577682257,
        0.8296361565589905
      ],
      "scale": [
        1.0,
        0.9999998807907104,
        1.0
      ],
      "translation": [
        2.5986082619056106e-08,
        2.3206729888916016,
        2.444721758365631e-08
      ]
    },
    {
      "name": "Foot L_end_016",
      "rotation": [
        -2.7755575615628914e-17,
        2.3852447794681098e-18,
        -1.3010426069826053e-18,
        1.0
      ],
      "translation": [
        1.1102230246251565e-16,
        1.1398695707321167,
        0.0
      ]
    },
    {
      "children": [
        26
      ],
      "name": "Upper Leg R_011",
      "rotation": [
        0.9960576891899109,
        -0.004668202716857195,
        -0.00041565613355487585,
        -0.08858384937047958
      ],
      "translation": [
        -0.5858045220375061,
        0.35877177119255066,
        0.06432292610406876
      ]
    },
    {
      "children": [
        27
      ],
      "name": "Lower Leg R_012",
      "rotation": [
        0.014500097371637821,
        0.00017774300067685544,
        -0.0021049007773399353,
        0.9998926520347595
      ],
      "scale": [
        1.0,
        0.9999998807907104,
        1.0
      ],
      "translation": [
        -2.048879466087783e-08,
        2.512660026550293,
        4.263256414560601e-14
      ]
    },
    {
      "children": [
        28
      ],
      "name": "Foot R_013",
      "rotation": [
        -0.5582509636878967,
        -0.0070169782266020775,
        0.0032357850577682257,
        0.8296361565589905
      ],
      "scale": [
        1.0,
        0.9999998807907104,
        1.0
      ],
      "translation": [
        -2.5986082619056106e-08,
        2.3206729888916016,
        2.444721758365631e-08
      ]
    },
    {
      "name": "Foot R_end_017",
      "rotation": [
        -2.7755575615628914e-17,
        -4.336808689942018e-19,
        4.336808689942018e-19,
        1.0
      ],
      "translation": [
        -1.1102230246251565e-16,
        1.1398695707321167,
        0.0
      ]
    }
  ],
  "scene": 0,
  "scenes": [
    {
      "name": "Sketchfab_Scene",
      "nodes": [
        0
      ]
    }
  ],
  "skins": [
    {
      "inverseBindMatrices": 16,
      "joints": [
        5,
        11,
        12,
        13,
        14,
        15,
        16,
        17,
        18,
        19,
        20,
        21,
        22,
        23,
        24,
        25,
        26,
        27,
        28
      ],
      "skeleton": 5
    }
  ]
}
